<?xml version="1.0" encoding="iso-8859-1"?>
<!-- Generator: Adobe Illustrator 19.0.0, SVG Export Plug-In . SVG Version: 6.00 Build 0)  -->
<svg xmlns="http://www.w3.org/2000/svg" xmlns:xlink="http://www.w3.org/1999/xlink" version="1.1" id="Capa_1" x="0px" y="0px" viewBox="0 0 512.001 512.001" style="enable-background:new 0 0 512.001 512.001;" xml:space="preserve" width="512px" height="512px">
<g>
	<g>
		<path d="M298.941,216.436h-90.256c-4.142,0-7.5,3.358-7.5,7.5c0,26.531,23.609,48.115,52.628,48.115    c29.019,0,52.628-21.584,52.628-48.115C306.441,219.794,303.083,216.436,298.941,216.436z M253.813,257.051    c-17.818,0-32.783-10.956-36.655-25.615h73.31C286.596,246.095,271.631,257.051,253.813,257.051z" fill="#333333"/>
	</g>
</g>
<g>
	<g>
		<path d="M205.716,120.242c-12.975,0-23.532,10.557-23.532,23.533v8.016c0,12.976,10.557,23.532,23.532,23.532    c12.976,0,23.532-10.557,23.532-23.532v-8.016C229.248,130.799,218.691,120.242,205.716,120.242z M214.248,151.791    c0,4.705-3.828,8.532-8.532,8.532c-4.704,0-8.532-3.828-8.532-8.532v-8.016c0-4.705,3.828-8.533,8.532-8.533    c4.704,0,8.532,3.828,8.532,8.533V151.791z" fill="#333333"/>
	</g>
</g>
<g>
	<g>
		<path d="M301.91,120.242c-12.975,0-23.532,10.557-23.532,23.533v8.016c0,12.976,10.556,23.532,23.532,23.532    s23.532-10.557,23.532-23.532v-8.016C325.442,130.799,314.885,120.242,301.91,120.242z M310.442,151.791    c0,4.705-3.828,8.532-8.532,8.532c-4.704,0-8.532-3.828-8.532-8.532v-8.016c0-4.705,3.828-8.533,8.532-8.533    c4.704,0,8.532,3.828,8.532,8.533V151.791z" fill="#333333"/>
	</g>
</g>
<g>
	<g>
		<path d="M419.26,299.088l25.564-25.563c15.132-15.134,15.132-39.758,0-54.891c-7.651-7.651-19.385-10.481-29.897-7.212    c-9.577,2.98-16.339,10.434-18.084,19.913c-3.275,17.43,8.538,26.446,17.277,28.254l3.039-14.688l0.115,0.025    c-2.758-0.669-7.165-2.965-5.684-10.848c1.004-5.453,5.314-7.562,7.794-8.333c5.253-1.635,11.075-0.262,14.833,3.496    c9.284,9.285,9.284,24.393,0,33.678l-23.518,23.518c-16.495-22.134-32.988-32.606-39.081-35.98    c8.498-14.411,13.277-30.597,13.277-47.695c0-7.491-0.906-14.848-2.688-22.035c18.929-6.234,32.348-24.146,32.348-44.699    c0-25.941-21.105-47.046-47.046-47.046c-3.453,0-6.863,0.372-10.192,1.108C346.9,63.865,326.698,42.294,300.86,30.225V17.387    c0-2.489-1.234-4.815-3.295-6.21c-2.061-1.395-4.68-1.677-6.99-0.753l-16.739,6.695l-2.859-11.438    c-0.506-2.027-1.835-3.75-3.667-4.756c-1.832-1.005-4-1.2-5.98-0.541c-11.689,3.896-23.13,11.511-34.034,22.645    c-23.43,5.742-44.646,19.173-59.941,37.997c-7.15,8.799-12.855,18.63-16.994,29.076c-3.344-0.744-6.769-1.123-10.241-1.123    c-25.941,0-47.046,21.105-47.046,47.046c0,20.554,13.419,38.465,32.348,44.699c-1.782,7.187-2.688,14.544-2.688,22.035    c0,17.098,4.779,33.284,13.277,47.695c-6.885,3.812-27.05,16.684-45.485,45.201c-12.83,19.847-22.248,43.299-27.99,69.703    c-7.106,32.676-8.576,70.02-4.367,110.996c2.088,20.321,19.028,35.645,39.404,35.645h27.985c1.989,0,3.897-0.79,5.303-2.197    c1.407-1.406,2.197-3.314,2.197-5.303v-16.032c0-12.976-10.557-23.532-23.532-23.532h-1.244    c-8.057-87.59,25.171-118.702,40.125-128.112c0.062-0.039,0.207-0.134,0.431-0.058c0.234,0.077,0.303,0.256,0.33,0.323    l5.53,14.172c-4.796,4.778-8.049,10.875-9.349,17.684c-1.726,9.042,0.209,18.19,5.449,25.759l48.623,70.233h-10.992    c-21.122,0-38.306,17.184-38.306,38.307v1.258c0,4.142,3.358,7.5,7.5,7.5H350.01c4.142,0,7.5-3.358,7.5-7.5v-1.258    c0-21.123-17.184-38.307-38.306-38.307h-10.992l8.975-12.964c6.902,3.711,14.695,5.576,22.514,5.576    c8.772,0,17.574-2.343,25.16-7.04c15.751-9.753,23.279-27.895,20.653-49.775c-1.728-14.395-0.558-25.26,0.909-32.273    c9.961,19.879,17.173,50.34,12.929,96.476h-1.244c-12.976,0-23.532,10.557-23.532,23.532v16.033c0,1.989,0.79,3.897,2.197,5.303    c1.407,1.407,3.314,2.197,5.303,2.197h27.985c20.376,0,37.316-15.324,39.404-35.646c4.208-40.975,2.739-78.319-4.367-110.995    C439.678,340.46,430.992,318.189,419.26,299.088z M157.504,131.083c0-22.021,7.632-43.542,21.49-60.597    c13.661-16.812,32.767-28.651,53.799-33.338c1.46-0.325,2.79-1.08,3.818-2.167c7.21-7.625,14.56-13.375,21.935-17.172    l2.821,11.285c0.525,2.102,1.933,3.873,3.861,4.859c1.929,0.987,4.189,1.09,6.2,0.286l14.431-5.772v6.651    c0,3.037,1.832,5.775,4.64,6.933c28.532,11.771,49.836,36.658,56.989,66.571c0.964,4.029,5.015,6.515,9.039,5.55    c4.029-0.963,6.514-5.01,5.55-9.039c-0.053-0.223-0.115-0.443-0.169-0.666c1.838-0.323,3.709-0.487,5.601-0.487    c17.67,0,32.046,14.376,32.046,32.046c0,14.037-9.183,26.263-22.122,30.479c-1.57-3.673-3.379-7.291-5.439-10.846    c-3.37-5.814-5.529-11.939-6.419-18.205c-0.582-4.101-4.376-6.954-8.479-6.371c-4.101,0.582-6.954,4.378-6.371,8.479    c1.162,8.183,3.951,16.128,8.292,23.618c7.219,12.457,10.879,25.773,10.879,39.58c0,51.742-52.074,93.837-116.082,93.837    s-116.082-42.095-116.082-93.837c0-13.806,3.66-27.123,10.879-39.58C154.429,153.141,157.504,142.042,157.504,131.083z     M135.632,155.659c-2.06,3.555-3.869,7.173-5.438,10.846c-12.939-4.216-22.122-16.442-22.122-30.479    c0-17.67,14.376-32.046,32.046-32.046c1.911,0,3.799,0.167,5.653,0.497c-2.139,8.663-3.267,17.596-3.267,26.606    C142.504,139.403,140.128,147.902,135.632,155.659z M109.523,479.936c4.705,0,8.532,3.828,8.532,8.532v8.533H97.57    c-12.659,0-23.184-9.535-24.482-22.178c-0.964-9.386-1.58-18.349-1.921-26.951h21.032c0.265,8.171,0.87,16.63,1.854,25.401    c0.426,3.794,3.635,6.663,7.453,6.663H109.523z M163.128,386.165c-2.931-4.233-4.013-9.351-3.048-14.408    c0.966-5.058,3.857-9.416,8.141-12.272c4.614-3.076,10.325-3.988,15.668-2.5c5.342,1.487,9.76,5.218,12.122,10.235l45.984,97.717    h-24.333L163.128,386.165z M246.313,497.001h-80.345c2.735-9.831,11.768-17.064,22.458-17.064h57.887V497.001z M319.2,479.936    c10.69,0,19.722,7.234,22.458,17.064h-80.345v-17.064H319.2z M289.964,464.936h-24.333l45.984-97.717    c2.361-5.018,6.779-8.748,12.122-10.235c5.343-1.486,11.053-0.575,15.668,2.5c4.284,2.856,7.175,7.214,8.141,12.272    c0.965,5.058-0.117,10.175-3.048,14.408L289.964,464.936z M370.616,402.521c1.929,16.074-2.921,28.587-13.656,35.235    c-9.205,5.699-21.451,6.264-31.153,1.76l31.024-44.813c5.24-7.569,7.175-16.717,5.449-25.759    c-1.3-6.808-4.552-12.906-9.349-17.684l5.53-14.171c0.026-0.067,0.096-0.246,0.33-0.323c0.222-0.074,0.369,0.019,0.431,0.058    c4.455,2.804,10.532,7.535,16.657,15.111C372.699,359.395,367.476,376.35,370.616,402.521z M434.539,474.822    C433.24,487.466,422.715,497,410.057,497h-20.485v-8.532c0-4.705,3.828-8.532,8.532-8.532h8.016c3.818,0,7.027-2.869,7.453-6.663    c0.985-8.771,1.59-17.23,1.854-25.401h21.041C436.122,456.483,435.502,465.447,434.539,474.822z M415.499,432.876v-0.004    c-0.613-25.632-5.098-47.928-13.464-66.553c-10.495-23.363-24.729-35.838-34.823-42.19c-3.933-2.475-8.713-3.061-13.118-1.608    c-4.412,1.455-7.913,4.777-9.606,9.115l-4.501,11.535c-6.473-2.245-13.534-2.512-20.272-0.637    c-3.675,1.023-7.101,2.645-10.171,4.758c-2.507-3.102-5.262-6.002-8.26-8.657c-3.101-2.747-7.841-2.459-10.587,0.643    c-2.746,3.101-2.458,7.841,0.643,10.587c2.94,2.604,5.59,5.502,7.926,8.64c-0.432,0.76-0.846,1.532-1.222,2.33l-44.23,93.99    l-44.23-93.99c-0.376-0.799-0.791-1.573-1.224-2.334c10.675-14.382,27.366-22.853,45.455-22.853c4.577,0,9.128,0.546,13.528,1.625    c4.023,0.986,8.083-1.477,9.069-5.5c0.985-4.023-1.477-8.083-5.5-9.069c-5.567-1.364-11.319-2.055-17.098-2.055    c-21.915,0-42.205,9.828-55.74,26.639c-3.068-2.11-6.491-3.729-10.162-4.751c-6.737-1.874-13.799-1.607-20.271,0.638    l-4.501-11.536c-1.693-4.338-5.194-7.66-9.606-9.115c-4.404-1.452-9.185-0.866-13.118,1.608    c-10.094,6.352-24.329,18.828-34.823,42.19c-8.367,18.625-12.851,40.921-13.464,66.553H70.861    c-0.033-63.493,16.365-104.107,31.653-128.126c18.961-29.79,40.119-40.884,42.085-41.869    c23.505,29.342,63.683,48.721,109.215,48.721c45.532,0,85.711-19.38,109.216-48.722c3.484,1.72,73.916,38.426,73.757,169.997    H415.499z" fill="#333333"/>
	</g>
</g>
<g>
	<g>
		<circle cx="237.839" cy="191.831" r="7.5" fill="#333333"/>
	</g>
</g>
<g>
	<g>
		<circle cx="269.839" cy="191.831" r="7.5" fill="#333333"/>
	</g>
</g>
<g>
</g>
<g>
</g>
<g>
</g>
<g>
</g>
<g>
</g>
<g>
</g>
<g>
</g>
<g>
</g>
<g>
</g>
<g>
</g>
<g>
</g>
<g>
</g>
<g>
</g>
<g>
</g>
<g>
</g>
</svg>
